<svg width="73" height="80" viewBox="0 0 73 80" fill="none" xmlns="http://www.w3.org/2000/svg">
<g clip-path="url(#clip0)">
<path fill-rule="evenodd" clip-rule="evenodd" d="M58.0727 67.2134C57.9481 67.2134 57.6708 68.1572 57.9562 68.8265C58.1081 69.1829 58.465 69.3334 58.7637 69.2336C59.058 69.1354 59.1437 68.8552 59.1518 68.637C59.1795 67.9036 58.5366 67.2134 58.0726 67.2134H58.0727ZM55.9323 56.511L56.0259 57.5473L55.1321 57.4474V58.6274L56.0259 58.5279L55.9323 59.6101H57.1462L57.0525 58.5279L57.9461 58.6274V57.4475L57.0525 57.5474L57.1462 56.511H55.9323H55.9323ZM56.5408 60.5948C56.2991 60.5948 56.1031 60.7954 56.1031 61.043C56.1031 61.2905 56.2991 61.4912 56.5408 61.4912C56.7826 61.4912 56.9786 61.2905 56.9786 61.043C56.9786 60.7954 56.7825 60.5948 56.5408 60.5948ZM56.5408 62.4095C56.2991 62.4095 56.1031 62.6101 56.1031 62.8577C56.1031 63.1053 56.2991 63.3059 56.5408 63.3059C56.7826 63.3059 56.9786 63.1052 56.9786 62.8577C56.9786 62.6102 56.7825 62.4095 56.5408 62.4095ZM56.5408 64.2503C56.2991 64.2503 56.1031 64.4509 56.1031 64.6984C56.1031 64.9463 56.2991 65.1468 56.5408 65.1468C56.7826 65.1468 56.9786 64.9461 56.9786 64.6984C56.9786 64.4509 56.7825 64.2502 56.5408 64.2502V64.2503ZM57.9545 64.6984C57.9545 64.9463 58.1506 65.1468 58.3923 65.1468C58.634 65.1468 58.83 64.9461 58.83 64.6984C58.83 64.4509 58.6339 64.2502 58.3922 64.2502C58.1504 64.2502 57.9544 64.4509 57.9544 64.6983L57.9545 64.6984ZM59.7892 64.6984C59.7892 64.9463 59.9854 65.1468 60.2271 65.1468C60.4689 65.1468 60.6649 64.9461 60.6649 64.6984C60.6649 64.4509 60.4688 64.2502 60.2271 64.2502C59.9854 64.2502 59.7892 64.4509 59.7892 64.6983V64.6984ZM56.5408 66.7145C56.1662 66.7145 55.2416 68.6189 55.9308 69.582C56.0626 69.7663 56.2936 69.8697 56.5408 69.8697C56.7881 69.8697 57.0191 69.7662 57.1509 69.582C57.8401 68.6189 56.9155 66.7145 56.5408 66.7145ZM55.009 67.2133C54.545 67.2133 53.9022 67.9035 53.9297 68.6369C53.9378 68.8551 54.0236 69.1353 54.3179 69.2335C54.6165 69.3334 54.9736 69.1828 55.1255 68.8264C55.4107 68.1571 55.1336 67.2133 55.009 67.2133ZM54.2968 64.6983C54.2968 64.9462 54.4926 65.1467 54.7345 65.1467C54.9765 65.1467 55.1723 64.9461 55.1723 64.6983C55.1723 64.4509 54.9763 64.2501 54.7344 64.2501C54.4925 64.2501 54.2967 64.4508 54.2967 64.6983L54.2968 64.6983ZM52.5069 64.6983C52.5069 64.9462 52.7029 65.1467 52.9446 65.1467C53.1864 65.1467 53.3826 64.9461 53.3826 64.6983C53.3826 64.4509 53.1865 64.2501 52.9446 64.2501C52.7029 64.2501 52.5069 64.4508 52.5069 64.6983V64.6983ZM52.0753 64.6983C52.0753 64.3162 52.1413 63.9719 52.1413 63.9719H55.7791V63.656L55.7792 60.993L55.7791 60.9926V60.2355C54.0231 60.5439 52.6188 61.9016 52.2002 63.6554C52.0982 63.8013 51.7683 63.876 51.5357 63.8498C50.1932 63.685 47.4765 63.1941 47.4765 62.614C47.4765 61.7991 48.027 61.473 48.5559 61.473C49.3103 61.473 50.1438 61.8826 50.8378 60.8754C48.3678 60.9887 50.2612 57.4114 48.2353 56.7326C48.3358 57.6461 48.2362 59.2533 47.9166 60.1027C47.9166 60.1027 47.1908 59.3253 46.3755 59.0322C46.4367 59.6953 46.3127 61.0697 46.0169 61.6955C46.0169 61.6955 45.1537 60.8943 44.2584 60.5947C45.0843 61.7951 45.0561 63.508 44.8338 64.55C44.7694 64.8515 44.9935 65.2267 45.6233 65.199C46.6085 65.1554 49.9732 65.3042 51.4326 65.9025C51.8864 66.0884 52.275 66.3018 52.465 66.6261C52.6195 67.0628 53.002 67.7393 53.4729 68.0861C53.6842 67.3312 54.5852 66.5226 55.1723 66.5517C55.3475 66.5604 55.5414 66.854 55.5816 67.1417C55.6334 66.8741 56.0664 66.135 56.5408 66.135C56.9785 66.135 57.3991 66.7533 57.5452 67.2642C57.5892 66.936 57.7827 66.5852 57.9581 66.5852C58.5476 66.5852 59.2889 67.1095 59.5683 67.9753C59.7945 67.6926 60.8333 66.3543 60.9506 65.476H52.1411C52.1411 65.476 52.0752 65.0961 52.0752 64.6986L52.0753 64.6983ZM57.3026 60.2362V63.972H60.9435C60.6269 62.0673 59.1614 60.5638 57.3025 60.2362H57.3026ZM14.3373 63.3122C14.4137 63.3379 14.4911 63.3196 14.5673 63.2791C14.3218 63.6215 14.332 63.8469 14.4376 63.9525C14.6037 64.1173 14.7266 63.8144 15.1462 63.3678C15.5662 62.9219 15.8567 62.7859 15.6913 62.6205C15.5847 62.5143 15.3637 62.5113 15.0338 62.7808C15.0703 62.702 15.0843 62.6235 15.0578 62.5467C14.9189 62.1441 14.2727 61.608 13.9165 61.6069C13.8651 61.6073 13.8143 61.618 13.767 61.6383C13.9237 61.3861 13.8833 61.1957 13.7784 61.0912C13.663 60.9764 13.5969 61.0569 13.4673 61.223C13.485 61.1069 13.4553 60.9709 13.346 60.805C12.8113 59.9939 9.98327 57.3233 9.34111 57.0549C8.95783 56.8941 8.83206 57.1166 8.83206 57.1166C8.83206 57.1166 8.61993 57.2536 8.7876 57.6432C9.06825 58.2952 11.7858 61.0838 12.5897 61.6086C12.7545 61.716 12.887 61.7421 12.999 61.7206C12.8427 61.8577 12.7679 61.9285 12.8827 62.0429C12.9876 62.1474 13.1744 62.1829 13.4145 62.0131C13.3964 62.0626 13.3879 62.1151 13.3894 62.1678C13.4016 62.5339 13.942 63.1819 14.3374 63.3121L14.3373 63.3122ZM7.5396 55.4112C7.4558 55.4112 7.33684 55.4311 7.2493 55.524C7.16065 55.6181 7.1295 55.7637 7.16176 55.9326C7.19717 56.1162 7.30157 56.3025 7.45619 56.4568C7.6413 56.6417 7.87422 56.7521 8.07835 56.7521C8.16268 56.7521 8.28084 56.7329 8.36852 56.64C8.55953 56.4367 8.46524 56.0094 8.16196 55.7069C7.97625 55.5223 7.74399 55.4113 7.53966 55.4113L7.5396 55.4112ZM16.335 65.3246C16.3326 65.0425 15.8003 64.5692 15.1688 64.5692C14.231 64.5692 13.825 65.1661 13.825 65.4702C13.825 66.0428 14.3761 66.1165 14.545 66.1259C15.2051 66.167 16.2694 65.4894 16.335 65.3246ZM15.5271 66.7545C15.278 67.075 15.1846 67.388 15.2491 67.6847C15.3276 68.044 15.6814 68.2053 15.9976 68.2053C16.3307 68.2053 16.629 68.0476 16.7956 67.7827C17.1539 67.2156 17.1697 65.9591 17.0489 65.8217C16.7486 65.8217 15.9499 66.2111 15.5272 66.7545L15.5271 66.7545ZM7.29671 53.6739C7.03166 53.4094 6.48963 53.8036 6.1657 53.6202C6.3093 52.8124 6.87861 53.6602 7.42884 53.0762C7.64819 52.8429 7.53048 52.4788 7.40458 52.3689C7.16753 52.6102 6.80065 52.5266 6.77245 52.3925C7.39691 50.9105 6.17678 49.2583 5.00524 49.4654C5.23507 49.7743 5.30379 50.8479 5.20366 51.1381C5.6497 51.4598 5.33088 52.2175 4.83861 51.9974C4.50845 51.8623 3.92616 51.0335 4.59579 50.4495C4.57652 50.2391 4.20812 50.1879 3.81665 50.6951C4.10386 49.7642 2.34556 50.056 1.98425 50.2794C1.77881 50.6578 1.55107 52.4766 2.44524 52.1518C1.96563 52.5708 2.02688 52.948 2.23166 52.9616C2.77737 52.2544 3.59953 52.8281 3.74137 53.1636C3.97061 53.6638 3.24471 54.0147 2.91868 53.566C2.63966 53.6785 1.5954 53.6415 1.28819 53.4147C1.12445 54.6265 2.76622 55.8299 4.18556 55.1414C4.31638 55.1663 4.40917 55.5403 4.18261 55.7922C4.29343 55.9189 4.65016 56.0283 4.86983 55.7949C5.41934 55.2109 4.57842 54.6512 5.35822 54.4777C5.54642 54.8056 5.18117 55.3758 5.44589 55.6404C5.86996 56.0633 6.40261 55.2428 6.92576 55.2099C6.94111 54.6705 7.72071 54.0971 7.29678 53.6738L7.29671 53.6739ZM2.90163 51.8029C2.90163 51.8029 2.62734 51.6073 2.95625 51.2488C3.2933 50.8989 3.49245 51.1754 3.49245 51.1754C3.49245 51.1754 3.80143 51.866 3.89278 52.1839C3.58117 52.0998 2.9017 51.8029 2.9017 51.8029H2.90163ZM5.61593 53.9034C5.4457 53.925 5.04242 54.2855 4.84019 54.0837L3.91475 53.1609L4.37743 52.6679L4.84196 52.176L5.76655 53.0999C5.96878 53.3011 5.63147 53.7278 5.61593 53.9033V53.9034ZM20.9496 68.0475C20.9809 67.9093 20.9594 67.7983 20.8873 67.7265C20.8646 67.7038 20.8443 67.6911 20.8321 67.6911C20.7799 67.6911 20.664 67.835 20.5522 67.9744C20.4591 68.0899 20.343 68.2339 20.195 68.3905C20.0476 68.5481 19.9111 68.6716 19.8017 68.7715C19.6717 68.8895 19.537 69.0119 19.5355 69.0671C19.5355 69.08 19.5488 69.1007 19.5724 69.1241C19.6203 69.1722 19.6844 69.196 19.7622 69.196C19.8812 69.196 20.1389 69.1349 20.5268 68.7222C20.8214 68.4098 20.9196 68.1829 20.9496 68.0476L20.9496 68.0475ZM20.9551 69.149C20.7535 69.3638 20.5486 69.5163 20.4351 69.5943C20.5156 69.6761 20.7443 69.8212 21.0302 69.8212C21.1933 69.8212 21.3457 69.773 21.4848 69.6777C21.7701 69.2056 21.4948 68.7227 21.371 68.5997C21.2986 68.7193 21.1566 68.9351 20.9551 69.1489L20.9551 69.149ZM17.8321 66.5229C17.6852 66.661 17.3456 67.6194 17.4938 68.2031C17.5576 68.4532 17.6951 68.5601 17.9279 68.5475C18.1686 68.5322 18.2999 68.4064 18.3405 68.1501C18.4328 67.5672 17.9923 66.6406 17.8321 66.5228L17.8321 66.5229ZM17.6462 63.859C17.6546 63.8754 19.3885 65.4052 19.9703 65.959C20.1073 66.0897 20.2964 66.1199 20.4883 66.0218C20.5978 65.9657 20.7342 65.9012 20.8752 65.8362C22.6092 65.2217 25.4613 65.1524 26.5075 65.1989C27.1373 65.2264 27.3597 64.8518 27.297 64.5499C27.0921 63.5638 27.0463 61.795 27.8723 60.5947C26.9771 60.8943 26.114 61.6954 26.114 61.6954C25.8179 61.0697 25.694 59.6953 25.7551 59.0321C24.9401 59.3252 24.2139 60.1027 24.2139 60.1027C23.8946 59.2533 23.7949 57.6461 23.8955 56.7327C21.8694 57.4114 23.763 60.9888 21.2928 60.8754C21.9869 61.8827 22.8205 61.4732 23.5748 61.4732C24.1037 61.4732 24.7608 61.8206 24.6543 62.6141C24.577 63.1888 21.2628 63.9044 19.9299 63.9044C18.9982 63.9044 18.3744 63.6158 17.9068 62.9673C17.6819 62.6555 17.4525 62.5144 17.1956 62.554C16.8767 62.6033 16.5038 62.9303 16.5038 63.6874C16.5038 64.2238 16.72 65.3995 17.362 65.3995C17.813 65.3995 17.833 64.4703 17.6462 63.8592L17.6462 63.859ZM19.7892 67.986C20.0918 67.6637 20.1977 67.4292 20.1229 67.2461C20.0147 66.9819 19.3264 66.2133 18.4254 65.3463C18.3985 65.5254 18.3583 65.7022 18.3052 65.8754C18.9125 66.68 19.1393 67.5441 18.9346 68.2699C19.0087 68.3193 19.0546 68.3417 19.0815 68.3522C19.3146 68.4452 19.6056 68.1811 19.789 67.986H19.7892ZM15.4046 63.6099C15.4003 63.6145 15.2881 63.7253 15.2156 63.8747C15.4041 63.8758 15.6237 63.9083 15.8212 63.9617C15.8081 63.7863 15.7951 63.5489 15.8122 63.344C15.6455 63.3816 15.4665 63.5427 15.4047 63.6099H15.4046ZM45.6909 69.1371C46.2618 68.8766 46.6734 68.1699 46.7817 67.4785C46.42 67.656 46.0122 67.7425 45.542 67.7425C44.2486 67.7425 42.6237 67.0233 41.1509 66.3713C41.1509 66.3713 40.8334 66.6384 40.3071 66.6943C41.7932 67.1511 44.7134 68.7719 44.928 69.8116C45.0714 70.5069 44.6182 70.7724 44.6182 70.7724C43.9685 69.7121 42.294 68.0658 40.0591 67.2423C40.0637 67.6299 39.9893 67.9019 39.9893 67.9019C39.9893 67.9019 39.5358 68.0134 38.5725 67.8461C39.4147 68.549 41.6273 71.0314 41.8675 72.915C42.0277 74.1725 41.149 74.2307 41.149 74.2307C41.0236 72.3393 40.0317 70.3821 38.2415 68.4169C38.2415 68.4169 37.948 68.8772 37.5578 69.1095C37.5578 69.1095 36.8967 68.9922 36.348 68.6293C36.5593 71.1247 36.6841 74.3663 36.553 75.3475C36.4614 76.0308 36.0656 76.3171 36.0656 76.3171C36.0656 76.3171 35.6684 76.0307 35.5767 75.3475C35.4458 74.3663 35.5704 71.1247 35.7817 68.6293C35.2332 68.9922 34.5719 69.1095 34.5719 69.1095C34.1817 68.8773 33.8886 68.417 33.8886 68.417C32.098 70.3823 31.1061 72.3393 30.9808 74.2307C30.9808 74.2307 30.1022 74.1725 30.2624 72.9151C30.5026 71.0315 32.7152 68.549 33.5574 67.8462C32.5941 68.0134 32.1405 67.9019 32.1405 67.9019C32.1405 67.9019 32.0662 67.6299 32.0709 67.2424C29.8361 68.0659 28.1618 69.7121 27.5117 70.7725C27.5117 70.7725 27.0586 70.5069 27.2022 69.8116C27.4166 68.772 30.3368 67.1511 31.8231 66.6943C31.2968 66.6385 30.979 66.3713 30.979 66.3713C29.5065 67.0234 27.8813 67.7426 26.5879 67.7426C26.1179 67.7426 25.7099 67.656 25.3485 67.4786C25.4566 68.1699 25.8685 68.8766 26.4389 69.1372C24.4409 70.5433 25.6747 73.8382 22.995 73.2189C24.4893 75.9933 27.5117 76.272 27.5117 76.272C26.8422 74.8043 27.677 70.3266 31.6885 68.292C29.2191 70.7539 28.0941 73.7389 28.7493 75.8446C29.3504 77.7775 31.3045 78.5608 32.7757 78.5944C31.7353 75.3987 32.3766 71.7387 34.5357 69.4347C33.6105 71.9615 32.3095 78.7059 36.0659 79.9996C39.822 78.7059 38.52 71.9616 37.5944 69.4347C39.754 71.7386 40.3949 75.3987 39.3546 78.5944C40.8258 78.5608 42.7799 77.7775 43.3811 75.8446C44.0362 73.7389 42.9111 70.7539 40.442 68.292C44.4536 70.3266 45.2881 74.8043 44.6184 76.272C44.6184 76.272 47.6411 75.9933 49.1353 73.2189C46.4555 73.8381 47.6894 70.5433 45.6911 69.1372L45.6909 69.1371ZM36.3845 13.5504C36.3845 13.3524 36.2281 13.1911 36.0365 13.1911C35.8443 13.1911 35.6884 13.3524 35.6884 13.5504C35.6884 13.749 35.8443 13.9104 36.0365 13.9104C36.2281 13.9104 36.3845 13.749 36.3845 13.5504ZM38.1406 13.5504C38.1406 13.3524 37.9848 13.1911 37.7925 13.1911C37.6007 13.1911 37.4448 13.3524 37.4448 13.5504C37.4448 13.749 37.6007 13.9104 37.7925 13.9104C37.9848 13.9104 38.1406 13.749 38.1406 13.5504ZM35.4122 4.22154C35.4122 4.59236 35.7044 4.89512 36.0635 4.89512C36.4233 4.89512 36.7153 4.59236 36.7153 4.22154C36.7153 3.8502 36.4233 3.54771 36.0635 3.54771C35.7044 3.54771 35.4122 3.85013 35.4122 4.22148V4.22154ZM35.6218 2.79033H36.5088L36.4129 1.71663L37.3764 1.81945V0.970135L36.4128 1.07263L36.5087 -0.000488281H35.6218L35.7172 1.07263L34.754 0.970135V1.81945L35.7172 1.71663L35.6218 2.79027L35.6218 2.79033ZM34.6284 13.5503C34.6284 13.3523 34.472 13.191 34.2801 13.191C34.0882 13.191 33.932 13.3523 33.932 13.5503C33.932 13.7489 34.0882 13.9103 34.2801 13.9103C34.472 13.9103 34.6284 13.7489 34.6284 13.5503ZM32.5379 14.8828C32.6321 14.9168 32.7409 14.9352 32.8697 14.9352H39.2612C39.39 14.9352 39.4988 14.9168 39.5927 14.8828C39.799 14.8087 39.9245 14.6534 39.9732 14.4053H32.1574C32.206 14.6534 32.3315 14.8086 32.5379 14.8829V14.8828ZM32.8894 13.5503C32.8894 13.3523 32.7333 13.191 32.5412 13.191C32.3492 13.191 32.1928 13.3523 32.1928 13.5503C32.1928 13.7489 32.3492 13.9103 32.541 13.9103C32.7332 13.9103 32.8892 13.7489 32.8892 13.5503H32.8894ZM39.8799 13.5503C39.8799 13.3523 39.7235 13.191 39.5321 13.191C39.34 13.191 39.1837 13.3523 39.1837 13.5503C39.1837 13.7489 39.34 13.9103 39.5322 13.9103C39.7235 13.9103 39.8799 13.7489 39.8799 13.5503H39.8799ZM40.2976 12.6979C40.4778 12.4737 41.3736 10.7377 41.3736 8.98522C41.3736 7.4079 39.3957 6.53964 38.2189 6.49997C38.0827 8.75309 37.2071 12.2899 36.0657 12.2899C34.9855 12.2899 34.0468 8.77348 33.9123 6.4999C32.7357 6.53971 30.7578 7.40797 30.7578 8.98528C30.7578 10.7378 31.6532 12.4738 31.8336 12.6979H40.2977H40.2976ZM36.0657 11.1709C36.6031 11.1709 37.2978 8.92705 37.4753 6.80332C37.4753 6.37335 36.9376 5.71564 36.0658 5.69853C35.1936 5.71558 34.6559 6.37328 34.6559 6.80332C34.8117 8.78377 35.5365 11.1709 36.0658 11.1709H36.0657ZM18.9787 22.6246C17.9357 24.062 19.378 25.6351 19.467 25.7438C19.5297 25.8205 19.5835 25.7859 19.5739 25.6998C19.5664 25.626 20.3245 23.4095 24.6893 24.5768C24.7826 24.6017 24.8399 24.6036 24.7524 24.513C23.9461 23.8725 22.9894 22.4369 22.6803 21.2821C22.6803 21.2821 20.0219 21.1872 18.9786 22.6246H18.9787ZM21.3186 22.324C21.3186 21.9225 21.9015 21.8117 22.2366 21.8117C22.2366 21.8117 22.3837 22.1994 22.5313 22.4141C22.1912 22.2617 21.7188 22.2462 21.3186 22.324ZM23.6355 20.4484C23.3451 20.4484 23.2366 20.6335 23.3315 20.9542C24.3344 24.3416 27.0684 25.145 28.1479 26.6121C28.1479 26.6121 28.1402 26.1551 28.641 25.0644C28.9817 25.6253 29.9049 26.6758 30.5048 26.8095C30.3614 26.5073 30.1909 25.3146 30.3239 24.5131C31.7406 25.7552 33.4873 25.9993 34.4246 25.2827C33.6266 25.3133 32.5873 24.4232 32.0643 23.6336C32.7946 23.8028 33.8 23.6284 34.0072 23.4181C33.5459 23.3053 32.9864 22.8953 32.6495 22.5055C33.1677 22.4695 34.2921 22.0439 34.6136 21.4439C34.1627 21.5465 33.4942 21.3619 33.0589 21.1312C33.3905 20.9516 34.2178 20.0629 34.4163 19.2829C33.2414 19.8603 31.3875 20.4347 28.6412 20.4347C28.6412 20.4347 23.7885 20.4483 23.6353 20.4483L23.6355 20.4484ZM26.6671 21.9926C25.8907 22.3008 25.5016 22.717 25.5016 22.717C25.5016 22.717 25.129 22.1042 25.0101 21.9072C24.8911 21.7103 24.8539 21.469 25.2552 21.469H27.6621C27.6621 21.6335 27.4433 21.6843 26.667 21.9926L26.6671 21.9926ZM18.4506 27.5044C18.7017 27.8383 19.4125 28.8581 20.9719 27.9464C22.5309 27.0345 23.3349 26.5381 23.3349 26.5381C23.3349 26.5381 23.0914 27.0087 23.2763 27.5729C23.287 27.6053 23.3237 27.6038 23.3378 27.5703C23.493 27.2052 24.8471 26.1486 26.5738 26.0024C25.9408 25.448 25.2463 24.9539 25.2463 24.9539C24.5086 25.0732 23.0786 25.5787 21.2288 26.7823C19.3789 27.9859 18.5267 27.4832 18.4913 27.4607C18.456 27.438 18.4059 27.4452 18.4505 27.5044H18.4506ZM40.5458 65.9346C40.8122 65.8495 41.0351 65.7133 41.1498 65.5606C39.955 65.5088 38.9688 64.4753 38.6076 63.8377C38.2107 64.4956 37.5022 65.0095 37.5022 65.0095C36.9978 64.8762 36.3083 64.3255 36.0655 63.9044C35.8229 64.3256 35.1334 64.8762 34.6288 65.0095C34.6288 65.0095 33.9203 64.4956 33.5233 63.8377C33.1624 64.4754 32.1761 65.5088 30.9812 65.5606C31.0959 65.7133 31.3189 65.8495 31.5852 65.9346C31.7636 65.9919 31.961 66.0272 32.1597 66.0272C32.3702 66.0272 32.5815 65.9889 32.771 65.9C32.6517 66.3344 32.612 66.8707 32.6993 67.2385C32.6993 67.2385 33.3347 67.2886 33.9907 67.0404C34.0379 67.4375 34.2189 67.9185 34.5158 68.2437C34.5742 68.3073 34.6351 68.3672 34.7023 68.4168C35.0546 68.4168 35.9052 68.0057 36.0656 67.7522C36.2257 68.0055 37.0764 68.4168 37.4288 68.4168C37.4957 68.3671 37.5568 68.3072 37.6153 68.2436C37.9121 67.9185 38.0931 67.4375 38.1402 67.0403C38.4353 67.1887 38.778 67.248 39.1574 67.248C39.2488 67.2479 39.3402 67.2447 39.4315 67.2384C39.5191 66.8707 39.4793 66.3343 39.3599 65.8999C39.5495 65.9888 39.7608 66.0271 39.9711 66.0271C40.1703 66.0271 40.3674 65.9918 40.5458 65.9345L40.5458 65.9346ZM28.6212 40.4139C28.3871 40.4139 28.2422 40.5636 28.2422 40.8046V55.4366C28.2422 56.8316 28.7911 57.5395 29.8734 57.5395L32.5818 57.55C34.4375 57.55 35.5323 58.1898 36.0655 58.9828C36.5189 58.2433 37.7932 57.55 39.5493 57.55L42.2568 57.5395C43.3395 57.5395 43.8883 56.8316 43.8883 55.4366V40.8046C43.8883 40.5636 43.7431 40.4139 43.5096 40.4139H28.6211H28.6212ZM31.2665 54.1034C31.2405 54.4272 31.6162 55.0162 32.2363 54.8319C32.2176 54.9514 32.2525 55.2782 32.3911 55.5233C31.2925 55.7726 30.8186 54.8676 31.2665 54.1034ZM41.2268 49.2596C41.0756 49.0989 40.9264 48.9363 40.7794 48.7718C40.6227 48.5973 40.5109 48.5295 40.351 48.5295C39.9915 48.5295 39.6067 48.7268 39.401 48.8633C39.3874 48.8689 39.377 48.8821 39.3719 48.9177C39.5906 48.8982 39.8098 48.8821 40.0278 48.8574C40.2191 48.8353 40.3978 48.843 40.5627 48.966C40.6925 49.0624 40.7658 49.1817 40.7728 49.3376C40.7936 49.8356 41.1905 50.8838 41.2151 51.1985C41.2461 51.3222 41.0975 51.3583 40.8917 51.9368C40.7398 52.1069 40.3291 51.567 40.3886 51.4406C40.6279 51.128 40.6939 50.9333 40.6332 50.7004C40.5847 50.5132 40.4935 50.1789 40.426 49.9976C40.3357 49.7558 40.1326 49.6652 39.8802 49.7518C38.8899 50.081 38.7372 49.6423 37.7557 50.0549L38.8861 51.8071C38.882 51.6801 38.8212 51.4509 38.6384 51.2861C38.6713 51.1092 39.0279 51.036 39.1611 51.2017C39.3246 51.4117 39.6436 51.7112 39.9062 51.7592C40.4106 51.8526 40.3724 52.6196 41.7203 52.8764C41.5527 53.0503 41.1789 52.9913 41.016 52.9126C41.1144 53.0648 41.2275 53.2084 41.4306 53.2603C41.2216 53.4703 40.6221 52.9781 40.6834 53.4734C40.7871 53.4134 40.9307 53.4036 41.0522 53.4342C41.3212 53.5014 41.7624 55.0329 40.833 55.7021C41.0309 55.7616 41.2437 55.6569 41.4443 55.6569C41.562 55.6569 41.6719 55.7712 41.6835 55.8987C41.7702 55.9653 41.8271 56.0471 41.8776 56.152C41.8077 56.1752 41.6726 56.1537 41.5976 56.1038C41.6278 56.1887 41.6206 56.393 41.5891 56.3969C41.505 56.4083 41.4403 56.3599 41.3544 56.3086C41.2347 56.37 40.8416 56.3448 40.7302 56.2452C40.4334 56.3175 40.1405 56.4146 39.8312 56.4146C39.6643 56.4146 39.4443 56.4038 39.4522 56.1995C39.456 56.0998 39.5053 56.0486 39.544 55.9396C39.4017 55.793 39.1645 55.935 38.8817 55.9623C38.4984 55.9992 38.3403 55.9396 38.2571 55.8613C38.6191 55.5255 38.4006 54.7075 37.8416 54.6351C38.3014 55.0766 38.2414 55.791 37.7266 55.9515C37.8753 55.9997 37.949 56.0669 38.006 56.173C38.1869 56.2484 38.1896 56.3798 38.176 56.4385C38.077 56.3682 37.8986 56.2987 37.7563 56.3175C37.7461 56.3798 37.7201 56.4964 37.6665 56.5415C37.605 56.528 37.5248 56.4716 37.4937 56.4267C37.3293 56.3003 36.3051 56.5415 36.2429 56.3727C36.2035 56.216 36.477 56.084 36.7292 56.0284C36.0805 55.7897 35.5177 54.5653 34.5189 54.358C34.0557 54.2621 33.4282 54.4708 33.4282 55.0749C33.4282 55.3716 33.6662 55.6001 33.9236 55.6001C34.1605 55.6001 34.279 55.4359 34.279 55.2696C34.2408 55.2986 34.2172 55.3165 34.194 55.3356C34.049 55.4548 33.8644 55.4472 33.7307 55.3166C33.6131 55.2015 33.6131 55.0018 33.7273 54.8667C33.8212 54.7543 33.934 54.691 34.0847 54.6687C34.4757 54.6116 34.7955 54.7366 35.0109 55.0513C35.1136 55.2015 35.1702 55.362 35.1702 55.5175C35.1702 56.2135 34.475 56.3715 34.0902 56.3715C33.1216 56.3715 32.5507 55.6762 32.5507 54.8717C32.5507 54.7779 32.5553 54.6829 32.5713 54.5871C32.7229 53.6817 33.5294 53.3032 34.2271 53.1899C34.1381 52.8748 33.9662 52.6201 33.7195 52.4122C33.5967 52.3088 33.5843 52.2244 33.6616 52.0925C33.767 51.9122 33.8777 51.7347 33.9243 51.5315C33.9349 51.4859 33.9397 51.4377 33.9431 51.3882C33.5957 51.7004 33.11 51.9865 32.438 52.1907C32.2261 52.289 32.114 52.4825 32.087 52.7052C32.0564 52.9635 32.0492 53.2256 32.0446 53.4863C32.0434 53.5464 32.0868 53.6118 32.1198 53.6695C32.2448 53.8846 32.3829 54.094 32.4138 54.3623C32.4138 54.4923 31.7613 54.5057 31.7613 54.4015C31.7552 53.9297 31.441 53.7463 31.4747 53.4348C31.5616 52.9502 31.581 52.4655 31.5018 51.9784C31.4819 51.8558 31.5469 51.7751 31.6341 51.7099C31.7727 51.6039 31.92 51.5092 32.0584 51.4041C32.3849 51.1539 32.52 50.828 32.4433 50.4238C32.4334 50.3712 32.4102 50.3205 32.3875 50.271C32.2249 49.9114 32.1062 49.5472 32.1062 49.1417C32.1062 48.697 31.5565 48.7223 31.5924 49.1594C31.6037 49.2959 31.7053 49.4869 31.7624 49.6181C32.3261 50.9181 31.3126 51.8544 30.2642 51.8537C31.3662 51.4713 30.0066 50.0572 30.0066 49.0021C30.0066 48.3551 30.5054 47.8767 31.1005 47.8767C31.7869 47.8767 32.2222 48.3201 32.3468 48.3963C32.6789 47.8684 33.6957 47.7732 34.0774 47.7124C34.0483 47.4282 34.0883 47.1756 34.2621 46.9575C34.2734 46.9427 34.2806 46.9154 34.2744 46.8996C34.2202 46.7652 34.1624 46.6325 34.0875 46.5025C33.7745 46.8566 33.6993 47.3262 33.6993 47.569C32.5401 47.552 32.0288 47.0431 31.6862 46.8427C31.6875 46.7542 31.9959 46.1979 32.2694 45.8307C31.9696 46.0882 31.7232 46.3782 31.5422 46.7259C31.3765 46.6059 31.2023 46.4974 31.0319 46.4264C31.2932 45.8655 31.6394 45.429 32.0806 44.9728C31.4593 45.2025 30.9186 45.9066 30.7137 46.3489C30.5365 46.3286 30.2746 46.3217 30.1284 46.3502C30.8054 45.5204 31.1149 43.8854 32.6035 43.5187C32.2306 45.0349 33.1578 45.6511 33.7963 45.2554C33.7132 45.2554 33.6563 45.2686 33.6027 45.2554C32.3579 44.9389 33.0956 43.2111 32.7942 42.8514C32.6797 42.7151 32.6206 42.59 32.6392 42.4174C32.6459 42.3566 32.6279 42.2862 32.6001 42.2303L31.9381 41.1226C31.8548 40.9831 32.1125 40.8839 32.1681 40.948L32.8432 42.0558C32.8607 42.0835 32.8822 42.1241 32.9073 42.1288C33.1542 42.1723 33.2306 42.3773 33.3304 42.5587C33.362 42.6172 33.3869 42.6844 33.3927 42.7505C33.3974 42.801 33.3837 42.8716 33.3501 42.9059C33.2427 43.0148 33.2635 43.1219 33.3465 43.2631C33.4798 43.4895 37.4793 50.1592 37.4793 50.1592C36.6106 50.5152 35.0393 50.5441 34.5841 50.4999C34.4896 50.7314 34.342 50.9756 34.1237 51.211C34.3416 51.0689 34.5102 50.8886 34.6659 50.6927C34.8416 50.713 35.1051 50.7835 35.3745 50.8032C35.2151 51.1444 34.9758 51.4838 34.6685 51.7682C34.524 51.9108 34.345 52.037 34.4108 52.2654C34.485 52.5225 34.9626 53.0123 35.1367 53.3301C35.3096 53.3667 35.6014 53.4283 35.8154 53.5139C35.9375 53.7766 36.3505 54.1065 36.8482 53.9358C35.8475 53.9232 35.9214 52.8966 36.2323 52.3537C36.1987 52.8579 36.4419 53.2766 36.7499 53.3243C36.2881 52.9023 36.3343 51.9437 36.7841 51.4179C36.8481 52.2716 37.1067 52.7204 37.4767 52.8218C36.9877 52.3713 36.6942 51.3291 37.4326 50.5697C37.4897 52.5185 39.272 52.1671 39.434 54.4231C40.0941 54.4231 40.1317 53.533 39.7637 53.3694C39.5489 53.2889 39.3549 53.1473 39.245 52.9545C39.1992 52.8733 39.1517 52.7287 39.1144 52.6436C38.9182 52.064 38.3642 52.1007 38.3776 51.9617C38.3907 51.9147 38.478 51.8931 38.6003 51.8931L37.5564 50.2784L37.502 50.1941C37.6279 50.1685 37.6558 50.0952 37.5265 49.891C37.5265 49.891 33.6091 43.369 33.5904 43.3316C33.9546 43.2684 34.3045 43.3673 34.6452 43.4993C34.5543 43.4148 34.4801 43.2968 34.4643 43.1751C34.4511 43.0773 34.4548 43.0202 34.5335 42.9581C34.6168 42.89 34.6968 42.8114 34.7551 42.7227C34.9496 42.4265 35.307 42.2818 35.6317 42.3745C36.1217 42.5138 36.2951 43.0686 35.9349 43.3602C35.7432 43.7834 35.5055 43.7301 35.4566 43.9197C35.5527 43.9643 36.2229 44.4825 36.2676 44.7007C36.0679 45.1169 35.9686 45.7676 36.1419 46.1307C36.2713 44.4006 37.312 43.5543 38.3255 43.5543C38.5662 43.5543 38.8054 43.5963 39.0453 43.6781C39.1766 43.7225 39.3079 43.7864 39.4171 43.8695C39.5756 43.9909 39.7228 44.1262 39.8571 44.2738C40.0549 44.4913 40.2361 44.7236 40.5725 44.7387C40.4742 44.8791 40.3622 44.9817 40.2475 45.0826C40.1649 45.1567 40.1234 45.2457 40.1132 45.3573C40.0898 45.5977 40.0109 45.8178 39.8344 45.9947C39.8107 46.0187 39.7923 46.0475 39.7807 46.0791C39.6682 46.4059 39.5542 46.7314 39.4485 47.0601C39.4222 47.1401 39.4281 47.2505 39.3202 47.2492C39.2264 47.2478 39.1132 47.2205 39.0433 47.1634C38.8947 47.043 38.8415 46.8676 38.8947 46.6825C38.9477 46.4985 38.8947 46.3404 38.8365 46.1692C38.7768 45.9979 38.7561 45.8128 38.7161 45.6173C38.4393 45.5202 37.9199 46.1154 38.3164 46.614C38.5739 46.9819 38.8053 47.6589 38.8454 47.936C38.8538 47.9633 38.6111 48.1163 38.2769 48.0737C37.1471 47.929 36.4325 47.1438 36.2154 46.4814C36.1977 47.6036 37.1282 48.4354 38.5072 48.3549C38.5634 48.6162 38.7767 48.7938 39.0252 48.8021C39.0768 48.6333 39.0757 48.2792 39.0336 48.0541C39.0148 47.9551 39.0667 47.9044 39.1584 47.8808C39.4599 47.8041 39.8523 47.8339 40.1881 47.714C40.4858 47.6069 40.6266 47.6696 40.8117 48.0301C40.952 48.302 41.1918 48.5947 41.4182 48.7964C41.5133 48.8808 41.6084 48.9664 41.6982 49.0565C41.8127 49.1713 41.8723 49.3063 41.8812 49.4732C41.8517 49.7347 41.8864 50.2611 41.8864 50.2694C41.821 50.442 41.3444 50.2593 41.2674 50.074C41.2384 50.0049 41.4713 49.5196 41.2267 49.2594L41.2268 49.2596ZM49.4508 21.2821C49.1417 22.4369 48.185 23.8725 47.3788 24.513C47.2913 24.6036 47.3485 24.6017 47.4419 24.5768C51.8065 23.4095 52.5648 25.6259 52.557 25.6999C52.5477 25.7859 52.6014 25.8206 52.6639 25.7438C52.7531 25.6352 54.1955 24.062 53.1525 22.6247C52.1092 21.1873 49.4508 21.2822 49.4508 21.2822V21.2821ZM49.5999 22.4141C49.7473 22.1994 49.8947 21.8117 49.8947 21.8117C50.2296 21.8117 50.8125 21.9225 50.8125 22.324C50.4121 22.2461 49.9399 22.2617 49.5999 22.4141H49.5999ZM53.6806 27.5044C53.7252 27.4452 53.6749 27.438 53.6396 27.4607C53.6043 27.4832 52.752 27.9859 50.9023 26.7823C49.0523 25.5787 47.6225 25.0732 46.8848 24.9539C46.8848 24.9539 46.1902 25.448 45.5569 26.0024C47.2837 26.1486 48.638 27.2052 48.7932 27.5703C48.8075 27.6038 48.8439 27.6053 48.8546 27.5729C49.0397 27.0087 48.7959 26.5381 48.7959 26.5381C48.7959 26.5381 49.6 27.0345 51.1591 27.9463C52.7184 28.8581 53.4292 27.8383 53.6805 27.5044L53.6806 27.5044ZM39.0721 21.1313C38.6368 21.362 37.9685 21.5465 37.5175 21.444C37.839 22.044 38.9634 22.4695 39.4814 22.5056C39.1447 22.8952 38.585 23.3053 38.1238 23.4181C38.3311 23.6284 39.3364 23.8027 40.0669 23.6336C39.5436 24.4231 38.5045 25.3133 37.7064 25.2827C38.644 25.9994 40.3907 25.7552 41.8074 24.5132C41.9402 25.3146 41.7698 26.5072 41.6262 26.8095C42.2262 26.6758 43.1495 25.6253 43.4903 25.0645C43.9909 26.1551 43.9834 26.6122 43.9834 26.6122C45.063 25.1451 47.7968 24.3417 48.7998 20.9543C48.8946 20.6336 48.786 20.4484 48.4958 20.4484C48.3426 20.4484 43.4901 20.4348 43.4901 20.4348C40.7435 20.4348 38.8896 19.8604 37.7147 19.283C37.9132 20.0629 38.7405 20.9517 39.0723 21.1312L39.0721 21.1313ZM46.8759 21.469C47.277 21.469 47.2398 21.7103 47.1209 21.9072C47.002 22.1042 46.6293 22.7171 46.6293 22.7171C46.6293 22.7171 46.2403 22.3008 45.4641 21.9925C44.6877 21.6843 44.4689 21.6335 44.4689 21.469H46.8759ZM28.9178 26.5428C28.7614 26.9861 28.7153 27.475 28.7985 28.111C29.3031 29.2074 29.5472 31.2431 29.3915 32.3811C30.1954 31.2594 30.5524 29.998 30.7824 28.9887C31.2434 29.4604 31.8416 30.1356 32.2589 30.6826C32.3306 30.0901 32.4577 29.3585 32.569 28.8301C33.1696 29.4037 34.4157 30.1239 35.2584 30.3793C34.6912 27.9856 33.7205 26.4598 33.7205 26.4598C32.8968 26.5427 31.57 26.342 30.9735 25.7551C31.08 26.6224 31.6766 27.6195 31.6766 27.6195C30.3984 27.7442 29.493 27.3079 28.9179 26.5428H28.9178ZM43.2131 26.5428C42.638 27.308 41.7327 27.7443 40.4544 27.6195C40.4544 27.6195 41.0509 26.6225 41.1574 25.7552C40.5609 26.3421 39.2344 26.5428 38.4105 26.4598C38.4105 26.4598 37.44 27.9855 36.8724 30.3792C37.7154 30.1238 38.9614 29.4036 39.5618 28.8301C39.6733 29.3585 39.8003 30.0901 39.872 30.6825C40.2894 30.1356 40.8873 29.4602 41.3487 28.9886C41.5786 29.9979 41.9356 31.2594 42.7395 32.3811C42.5837 31.243 42.8279 29.2073 43.3323 28.1109C43.4156 27.4749 43.3694 26.9859 43.213 26.5427L43.2131 26.5428ZM32.2184 34.0844C32.7007 34.86 33.13 35.7926 33.2787 36.6232C33.7411 36.0636 34.2295 35.0908 34.5605 33.9288C34.9662 34.4361 35.675 35.4693 36.0655 36.3216C36.4557 35.4693 37.1646 34.4361 37.5703 33.9288C37.9014 35.0908 38.3898 36.0636 38.8523 36.6232C39.0009 35.7926 39.4302 34.86 39.9125 34.0845C40.2793 35.5939 41.6945 37.0621 43.1548 37.1725C42.2048 35.9389 42.1656 33.8067 42.2328 33.0966C41.6003 32.1129 41.1836 31.2254 40.9843 30.6223C40.5553 31.0466 39.8916 31.8712 39.2961 32.8243C39.2961 32.8127 39.2791 31.6292 39.0416 30.1922C38.4277 30.7471 37.3159 31.1488 36.7217 31.3048C36.3466 31.9164 36.2439 32.3936 36.0655 33.1613C35.8871 32.3936 35.7841 31.9164 35.4092 31.3048C34.8148 31.1487 33.7033 30.7471 33.0892 30.1922C32.8519 31.6292 32.8346 32.8127 32.8346 32.8242C32.2389 31.8712 31.5756 31.0465 31.1464 30.6223C30.9472 31.2254 30.5306 32.1129 29.8978 33.0967C29.9654 33.8069 29.9258 35.9391 28.9759 37.1726C30.4365 37.0622 31.8515 35.594 32.2182 34.0846L32.2184 34.0844ZM18.9864 51.9351C19.806 51.4002 20.3247 50.4285 20.9151 49.24C20.5714 49.3823 20.0733 49.5364 19.5742 49.64C19.0872 50.5821 18.3976 50.2166 18.3796 50.083C18.5286 49.9177 18.6988 49.6735 18.8268 49.461C18.6193 49.0726 18.3692 48.4941 18.2314 48.1363C17.5347 49.6033 16.255 51.0935 15.1833 51.6749C15.8139 52.5516 17.7681 52.7299 18.9863 51.935L18.9864 51.9351ZM21.5196 49.4625C20.9383 50.6896 21.075 52.5806 22.9258 52.6341C22.7722 51.2951 23.3753 50.0354 24.02 49.4626C23.4655 49.5993 22.5627 50.3269 22.5627 50.3269C22.5627 50.3269 22.4268 50.6387 22.3995 51.0421C22.0121 51.1114 21.798 50.8129 21.9588 50.1903C21.9588 50.1903 21.6788 49.8701 21.5196 49.4627V49.4625ZM12.358 50.8637C12.6308 50.8634 12.9026 50.8301 13.1675 50.7647C14.9546 50.3231 16.6565 48.7946 17.6681 47.5113C17.0902 47.6943 16.5065 47.8131 15.8595 47.8787C15.8595 47.8787 15.4064 48.4088 15.0576 48.6048C14.8808 48.705 14.7041 48.7529 14.5367 48.7529C14.0311 48.7529 13.8165 48.3381 13.8165 48.3381C13.8165 48.3381 14.6319 47.9473 15.1509 47.392C15.0481 46.9829 14.9827 46.416 14.9708 45.8509C13.5636 47.2646 10.9186 48.6383 9.07114 48.9049C9.43678 49.6662 10.7341 50.8637 12.3581 50.8637H12.358ZM8.77999 47.8649C8.87272 47.8648 8.96539 47.8604 9.0577 47.8515C10.8944 47.6699 13.1112 46.4934 14.5387 45.4751C14.0843 45.5674 12.8895 45.5941 12.3226 45.5151C12.1265 45.6465 11.2622 46.1929 10.5429 46.2841C9.23107 46.4503 9.09232 45.6386 9.09232 45.6386C9.93514 45.5356 10.9067 45.2511 11.8355 44.8185C11.9287 44.1191 12.0905 43.4956 12.2289 43.036C10.204 44.1639 6.90052 44.9572 4.94084 44.9834C5.33297 45.9147 6.8533 47.8648 8.78006 47.8648L8.77999 47.8649ZM9.06884 41.2483C9.35114 40.7489 9.79789 40.1586 10.2046 39.6772C8.58799 40.1224 6.50688 40.2155 5.4036 40.2155C4.10288 40.2155 2.83901 40.1237 2.11389 39.9781C2.17829 41.285 3.42124 43.5394 5.87363 43.7594C6.0015 43.7712 6.14301 43.7768 6.29435 43.7768C7.82432 43.7768 10.2575 43.1577 11.9319 42.5636C10.738 42.4099 9.58498 42.1265 9.32202 42.0162C8.6994 42.1949 7.21206 42.4444 6.72904 42.4177C5.63265 42.3575 5.51527 41.5156 5.51527 41.5156C5.51527 41.5156 7.48839 41.5991 9.06871 41.2483H9.06884ZM3.18183 38.8535C4.09291 39.148 5.54589 39.3168 7.16852 39.3168C8.15842 39.3168 9.20275 39.2283 10.0521 39.1075C9.13475 38.7951 8.00268 38.3229 7.26701 37.8551C6.34747 37.8367 5.09934 37.8106 4.29783 37.5652C3.11914 37.2044 3.13586 36.398 3.15684 36.217C4.17586 36.6269 5.90937 37.0189 7.19061 37.0952C7.66294 36.6402 8.39258 36.0979 9.16242 35.6257C6.12202 35.6524 2.24065 34.448 0.0598598 33.2933C-0.438763 37.3512 2.31652 38.5734 3.18183 38.8535V38.8535ZM9.86524 30.4391C9.39606 29.5388 8.93855 28.3276 8.87816 27.2837C7.45619 26.1662 5.83304 24.7442 4.89389 23.1189C4.35114 22.1794 4.55147 21.3561 4.93586 21.0727C5.22897 22.0933 7.13848 24.9514 8.86937 26.3845C8.88301 25.4686 9.03704 24.4151 9.27579 23.6228C7.26334 21.4323 5.0076 17.8041 4.46268 16.3827C3.85022 16.89 2.79448 18.1663 2.53501 19.9646C2.2737 21.7748 2.86052 23.6343 4.27901 25.4918C5.36996 26.9207 7.77147 29.051 9.86524 30.4392V30.4391ZM9.28688 35.0427C7.9034 34.1251 6.94439 33.2738 6.4333 32.5092C5.27724 32.0595 3.78248 31.373 3.04609 30.7543C2.03429 29.9052 2.35461 29.1408 2.47258 28.988C3.3634 29.8979 5.29265 31.2092 6.66288 31.7926C7.51835 31.4591 8.70707 31.2148 9.86517 31.0722C6.43291 29.7158 2.74858 27.1696 0.823204 24.7693C0.432778 25.5275 -1.15319 29.0944 1.82019 32.0193C3.38609 33.56 6.61166 34.6231 9.28668 35.0428L9.28688 35.0427ZM53.8996 48.1364C53.7616 48.4941 53.5115 49.0728 53.3039 49.4611C53.4318 49.6735 53.6023 49.9177 53.7513 50.0831C53.7332 50.2167 53.0437 50.5821 52.5569 49.64C52.0576 49.5365 51.5595 49.3823 51.2157 49.24C51.8063 50.4286 52.3247 51.4003 53.1446 51.9351C54.3628 52.73 56.317 52.5516 56.9474 51.6749C55.8758 51.0935 54.5961 49.6033 53.8995 48.1363L53.8996 48.1364ZM50.6113 49.4626C50.4521 49.8701 50.1721 50.1903 50.1721 50.1903C50.333 50.8129 50.1189 51.1114 49.7312 51.0421C49.7041 50.6387 49.5679 50.3268 49.5679 50.3268C49.5679 50.3268 48.6652 49.5993 48.1108 49.4625C48.7553 50.0354 49.3586 51.2951 49.2052 52.6341C51.0559 52.5806 51.1927 50.6896 50.6113 49.4626ZM56.9803 47.3921C57.4989 47.9473 58.3143 48.3382 58.3143 48.3382C58.3143 48.3382 58.0997 48.753 57.5943 48.753C57.4267 48.753 57.2502 48.7051 57.0731 48.6049C56.7244 48.4088 56.2713 47.8787 56.2713 47.8787C55.6243 47.8132 55.0405 47.6945 54.4626 47.5114C55.4744 48.7947 57.1762 50.3232 58.9632 50.7647C59.2281 50.8301 59.5 50.8634 59.7729 50.8637C61.3967 50.8637 62.6942 49.6662 63.0597 48.905C61.2123 48.6383 58.5673 47.2648 57.1601 45.8509C57.1481 46.416 57.0827 46.9829 56.9803 47.3921ZM60.2953 44.8187C61.2241 45.2512 62.1958 45.5357 63.0389 45.6387C63.0389 45.6387 62.8999 46.4505 61.5879 46.2842C60.8688 46.1929 60.0041 45.6465 59.8083 45.5151C59.2414 45.5941 58.0464 45.5674 57.5922 45.4751C59.0197 46.4934 61.2365 47.6699 63.073 47.8515C63.1654 47.8604 63.2581 47.8648 63.3509 47.8649C65.2777 47.8649 66.7978 45.9147 67.19 44.9834C65.2303 44.9572 61.927 44.1639 59.9021 43.0361C60.0405 43.4958 60.2021 44.1192 60.2953 44.8186V44.8187ZM61.9261 39.6772C62.3328 40.1587 62.7796 40.749 63.0618 41.2483C64.6423 41.5991 66.6153 41.5156 66.6153 41.5156C66.6153 41.5156 66.498 42.3575 65.402 42.4176C64.9187 42.4443 63.4315 42.1949 62.8089 42.0162C62.5457 42.1265 61.3929 42.4099 60.1991 42.5636C61.8732 43.1577 64.3068 43.7769 65.8366 43.7769C65.9881 43.7769 66.1294 43.7713 66.2572 43.7594C68.7096 43.5395 69.9527 41.2851 70.017 39.9783C69.2922 40.1237 68.0279 40.2156 66.7273 40.2156C65.6244 40.2156 63.5428 40.1225 61.9262 39.6772H61.9261ZM72.0712 33.2934C69.8902 34.4482 66.0089 35.6525 62.9684 35.6259C63.7382 36.098 64.4679 36.6403 64.9402 37.0954C66.2213 37.0189 67.9549 36.6269 68.9738 36.2171C68.9948 36.3981 69.0115 37.2044 67.833 37.5653C67.0315 37.8107 65.7834 37.8368 64.8638 37.8551C64.1281 38.323 62.9961 38.7952 62.0786 39.1076C62.9281 39.2282 63.9723 39.3169 64.9624 39.3169C66.585 39.3169 68.0379 39.1481 68.949 38.8536C69.8142 38.5736 72.5698 37.3513 72.0711 33.2934H72.0712ZM67.1951 21.0728C67.5796 21.3562 67.7798 22.1795 67.2371 23.119C66.2977 24.7443 64.6749 26.1662 63.2527 27.2838C63.1924 28.3277 62.7347 29.5389 62.2655 30.4392C64.3593 29.051 66.761 26.9207 67.8517 25.492C69.2703 23.6344 69.8571 21.7749 69.5957 19.9648C69.3362 18.1663 68.2807 16.89 67.668 16.3827C67.1233 17.8042 64.8673 21.4324 62.8549 23.6229C63.0937 24.4152 63.2479 25.4686 63.2616 26.3846C64.9922 24.9514 66.9018 22.0934 67.1951 21.0728ZM65.4679 31.7928C66.8383 31.2093 68.7676 29.8979 69.6581 28.9882C69.7761 29.1408 70.0964 29.9052 69.0847 30.7544C68.3483 31.3731 66.8534 32.0596 65.6976 32.5093C65.1864 33.2739 64.2275 34.1252 62.844 35.0428C65.519 34.6231 68.7447 33.56 70.3109 32.0194C73.284 29.0945 71.6979 25.5276 71.3076 24.7694C69.3824 27.1697 65.698 29.716 62.2655 31.0724C63.4238 31.2149 64.6125 31.4592 65.4679 31.7928L65.4679 31.7928ZM57.4702 27.6865C56.3555 30.2746 53.5294 32.582 51.7012 33.7373C50.8671 34.2641 51.1715 35.2633 51.4383 35.7067C53.9288 39.8475 49.3999 42.9336 45.3093 40.8814C46.2019 40.8912 47.103 40.1321 47.2278 39.4556C46.9441 39.7009 45.7826 39.5661 45.4393 39.2486C45.9662 38.9727 46.0915 38.6931 46.1187 38.4316C45.4671 38.8319 44.1498 38.8871 43.7617 38.2107C41.6004 38.1524 40.1627 36.4642 40.0037 35.977C39.8435 36.4953 39.5847 37.401 39.4997 38.2947C38.9135 37.8975 37.9125 36.9986 37.3906 35.7795C36.8 36.6238 36.3546 37.5748 36.0654 38.5769C35.7762 37.5748 35.3311 36.6238 34.7401 35.7795C34.2182 36.9985 33.2171 37.8975 32.6311 38.2948C32.5459 37.401 32.2875 36.4954 32.1272 35.9771C31.9682 36.4644 30.5305 38.1526 28.3692 38.2109C27.981 38.8872 26.6639 38.832 26.0122 38.4316C26.0393 38.6933 26.1647 38.9728 26.6915 39.2487C26.3483 39.5663 25.1868 39.7011 24.9029 39.4558C25.0277 40.1322 25.929 40.8913 26.8214 40.8815C22.7308 42.9337 18.2019 39.8476 20.6925 35.7069C20.9594 35.2634 21.2637 34.2642 20.4298 33.7373C18.6016 32.5819 15.7753 30.2746 14.6606 27.6865C14.5281 28.7418 14.6291 31.3608 15.7614 32.9905C14.9342 33.3072 13.8732 33.821 13.1599 34.2975C13.6111 34.8107 14.6614 35.6972 15.3671 36.1792C14.7911 36.692 13.8968 37.6739 13.4275 38.3167C14.0221 38.6708 15.2203 39.1006 16.1359 39.3906C15.7126 40.0897 15.0618 41.3509 14.8982 42.1014C15.9234 42.2507 16.97 42.237 17.8936 42.2078C17.7758 43.0831 17.8533 44.182 17.9458 44.9827C18.8973 44.8457 19.944 44.4592 20.6384 44.0932C20.7702 44.6971 21.1332 45.8118 21.4587 46.4086C22.3614 45.5509 23.552 45.1583 24.6542 45.3856C26.9109 45.851 27.5817 48.1364 27.5817 48.1364L27.5852 41.1843V40.4082C27.5852 39.9747 27.8181 39.7454 28.236 39.7455H43.895C44.313 39.7454 44.5458 39.9748 44.5458 40.4081V41.1842L44.5493 48.1363C44.5493 48.1363 45.2201 45.8509 47.4768 45.3855C48.5791 45.1582 49.7698 45.5507 50.6725 46.4084C50.9981 45.8117 51.361 44.697 51.4927 44.093C52.187 44.4591 53.2338 44.8456 54.1853 44.9826C54.2778 44.1819 54.3551 43.0831 54.2376 42.2078C55.1506 42.3026 56.2008 42.3026 57.2328 42.1014C57.0695 41.3509 56.4185 40.0898 55.9951 39.3907C56.9474 39.1349 58.1088 38.6709 58.7037 38.3168C58.2346 37.6739 57.3401 36.692 56.7641 36.1792C57.4696 35.6973 58.5199 34.8107 58.9713 34.2975C58.2579 33.821 57.1969 33.3072 56.3696 32.9905C57.5018 31.3609 57.6031 28.7419 57.4704 27.6865H57.4702ZM29.0104 19.5482L28.9172 19.7921C31.6533 19.7921 34.2835 18.8548 34.9852 15.5908H32.8895C32.5176 17.9423 31.137 19.5482 29.0103 19.5482H29.0104ZM17.1815 14.2378C17.1815 14.2378 18.6781 14.585 19.2637 16.6935C19.8496 18.8021 21.3214 19.8107 22.8316 19.8107L22.7386 19.5233C21.8599 19.4138 20.621 18.1608 20.3893 15.8403C20.1556 13.5041 19.5833 13.2031 19.5833 13.2031C18.992 12.7937 17.5056 13.8751 17.1813 14.2379L17.1815 14.2378ZM12.8038 15.181C14.0521 15.14 14.8921 15.5375 16.461 14.1067C18.3131 12.4167 19.1924 12.7055 19.1924 12.7055C18.2472 12.0899 16.9292 11.8164 16.4765 12.1719C16.0239 12.5277 15.4111 13.4822 14.3814 14.1618C12.9303 15.1194 11.4398 14.8667 11.3731 15.7593H11.4135C11.4135 15.7593 11.5557 15.2223 12.8037 15.181H12.8038ZM13.9553 20.7826C14.7141 21.5316 14.7838 23.0706 14.7838 23.0706C14.7838 23.0706 15.6925 21.4393 14.9437 19.705C14.195 17.971 12.6648 16.6405 14.1649 15.6278C13.2486 15.6355 12.2557 15.4245 11.8197 16.0465C11.6839 16.2401 11.5582 16.7202 12.0149 17.4033C12.5952 18.2714 14.0448 20.2899 12.857 21.634C13.7254 21.4735 13.9552 20.7825 13.9552 20.7825L13.9553 20.7826ZM23.3275 19.8014H28.4687C28.4687 19.8014 28.5959 19.489 28.758 19.0377H23.0384C23.2006 19.489 23.3275 19.8014 23.3275 19.8014ZM26.404 12.4922C26.404 12.2112 26.1821 11.9829 25.9086 11.9829C25.6349 11.9829 25.4128 12.2111 25.4128 12.4922C25.4128 12.7735 25.6349 13.0014 25.9086 13.0014C26.182 13.0014 26.404 12.7736 26.404 12.4922ZM28.9719 18.4614C29.1915 17.7711 29.4392 16.7211 29.4392 16.2145C29.4392 15.2886 28.9415 14.2635 27.1449 13.948C27.1449 15.067 26.6018 17.8087 25.9453 17.8087H25.8715C25.2153 17.8087 24.6721 15.0874 24.6721 13.9477C22.8695 14.2629 22.357 15.2882 22.357 16.2145C22.357 16.7212 22.6048 17.7711 22.8248 18.4614H28.9719H28.9719ZM25.9086 17.0408C26.2506 17.0408 26.5278 15.2507 26.5278 14.3594C26.5278 13.8724 26.2507 13.5531 25.9086 13.5531C25.5664 13.5531 25.289 13.8724 25.289 14.3594C25.289 15.2507 25.5664 17.0408 25.9086 17.0408H25.9086ZM25.578 11.304H26.2388L26.1563 10.4552L26.9822 10.5402V9.86108L26.1563 9.94607L26.2388 9.09715H25.578L25.6606 9.94607L24.8348 9.86108V10.5402L25.6607 10.4552L25.578 11.304L25.578 11.304ZM39.2412 15.5908H37.1455C37.8475 18.8549 40.4775 19.7921 43.2135 19.7921L43.1207 19.5482C40.994 19.5482 39.6132 17.9424 39.2413 15.5908H39.2412ZM49.2993 19.8107C50.8093 19.8107 52.2812 18.8022 52.8671 16.6935C53.4527 14.5851 54.9495 14.2379 54.9495 14.2379C54.6252 13.8753 53.139 12.7938 52.5475 13.2032C52.5475 13.2032 51.9753 13.5042 51.7416 15.8404C51.51 18.161 50.271 19.4139 49.3924 19.5234L49.2993 19.8108V19.8107ZM55.6699 14.1067C57.2387 15.5375 58.0787 15.1402 59.3271 15.181C60.575 15.2223 60.7172 15.7594 60.7172 15.7594H60.7576C60.6909 14.8668 59.2004 15.1195 57.7496 14.1619C56.7197 13.4823 56.1068 12.5278 55.6543 12.172C55.2015 11.8164 53.8835 12.09 52.9384 12.7056C52.9384 12.7056 53.8177 12.4168 55.6698 14.1067H55.6699ZM60.3111 16.0466C59.875 15.4246 58.8822 15.6356 57.9659 15.6278C59.466 16.6405 57.9362 17.971 57.1871 19.705C56.4385 21.4394 57.347 23.0706 57.347 23.0706C57.347 23.0706 57.4169 21.5316 58.1756 20.7826C58.1756 20.7826 58.4054 21.4736 59.274 21.6341C58.0859 20.29 59.5356 18.2714 60.1162 17.4034C60.5727 16.7203 60.4469 16.2401 60.3111 16.0465L60.3111 16.0466ZM48.8033 19.8015C48.8033 19.8015 48.9301 19.4891 49.0925 19.0377H43.3729C43.5349 19.4891 43.6621 19.8015 43.6621 19.8015H48.8033ZM46.7178 12.4923C46.7178 12.2112 46.4959 11.983 46.2222 11.983C45.9488 11.983 45.7267 12.2112 45.7267 12.4923C45.7267 12.7736 45.9487 13.0015 46.2222 13.0015C46.4959 13.0015 46.7178 12.7737 46.7178 12.4923ZM49.306 18.4615C49.5261 17.7711 49.774 16.7212 49.774 16.2145C49.774 15.2883 49.2612 14.2629 47.4587 13.9478C47.4587 15.0873 46.9157 17.8087 46.2593 17.8087H46.1856C45.5291 17.8087 44.9859 15.0671 44.9859 13.948C43.1892 14.2635 42.6917 15.2886 42.6917 16.2145C42.6917 16.7212 42.9393 17.7711 43.1589 18.4614H49.3061L49.306 18.4615ZM46.2222 17.0409C46.5645 17.0409 46.8419 15.2507 46.8419 14.3594C46.8419 13.8725 46.5645 13.5532 46.2222 13.5532C45.8801 13.5532 45.6029 13.8725 45.6029 14.3594C45.6029 15.2507 45.8801 17.0409 46.2222 17.0409ZM45.8921 11.304H46.5528L46.4704 10.4552L47.2962 10.5402V9.86115L46.4704 9.94613L46.5528 9.09722H45.8923L45.9749 9.94613L45.1487 9.86115V10.5402L45.9749 10.4552L45.8923 11.3041L45.8921 11.304ZM12.2547 31.7071C10.9193 31.7394 8.5678 32.0063 7.37343 32.3865C8.18524 33.3642 10.3051 34.768 11.5754 35.3642C10.5876 35.7396 8.81573 36.6923 8.07684 37.3799C9.02884 37.9701 11.1198 38.6444 12.1081 38.8649C11.5327 39.3331 10.3479 40.6868 9.9133 41.4168C10.7317 41.6728 12.4143 41.8954 13.4827 41.9584C13.1402 42.6745 12.75 43.9384 12.6467 44.7619C13.1763 44.8157 14.9457 44.724 15.8218 44.5269C15.7466 45.2446 15.7752 46.5503 15.8937 47.1132C16.7581 46.9887 17.9923 46.6399 18.5665 46.4173C18.7328 47.0571 19.3271 48.4348 19.536 48.7622C20.2285 48.6288 21.0551 48.3452 21.6627 48.0258C21.8547 48.5386 22.2911 49.3058 22.4118 49.4995C24.4359 47.4475 27.3264 49.1116 27.3264 51.2953C27.1187 52.7339 25.0931 52.6535 24.0268 53.3297C22.6247 54.2189 22.8673 56.2804 21.4242 56.597C22.7878 57.4617 23.1846 55.8387 24.6009 55.7925C24.4119 56.6679 24.4299 58.2221 24.5718 58.8732C25.1547 58.4219 25.9723 58.0774 26.5071 58.0425C26.375 58.5531 26.2719 59.748 26.4631 60.4923C26.8388 60.2067 28.2421 58.9831 31.5739 59.7698C31.9778 59.865 29.3139 59.76 29.6463 60.6218C29.9081 61.3012 29.9822 61.7735 29.6691 62.7377C29.8104 62.7886 29.9742 62.8128 30.1507 62.8128C30.8978 62.8128 31.8665 62.3781 32.2513 61.6954C32.5486 61.9171 32.5486 63.4961 31.5524 63.8882C32.6165 63.9661 33.4269 63.0992 33.5841 62.5665C33.5841 62.5665 34.1043 63.8067 34.7212 64.2139C35.1085 64.0777 35.7987 63.4337 36.0654 62.765C36.3319 63.4338 37.0222 64.0777 37.4093 64.2139C38.0262 63.8067 38.5465 62.5665 38.5465 62.5665C38.7037 63.0992 39.5144 63.9661 40.5784 63.8882C39.5822 63.4961 39.5822 61.9171 39.8794 61.6954C40.2643 62.3781 41.2328 62.8128 41.9801 62.8128C42.1565 62.8128 42.3206 62.7886 42.4619 62.7377C42.1488 61.7735 42.2228 61.3012 42.4846 60.6218C42.8171 59.76 40.1531 59.8651 40.557 59.7698C43.8882 58.9831 45.2921 60.2067 45.6679 60.4923C45.8591 59.748 45.7559 58.5531 45.6238 58.0425C46.1586 58.0774 46.9761 58.4219 47.5591 58.8731C47.7006 58.2221 47.7189 56.6678 47.5296 55.7924C48.946 55.8387 49.3427 57.4617 50.7065 56.5969C49.2633 56.2804 49.5058 54.2188 48.1037 53.3297C47.0375 52.6534 45.0118 52.7339 44.8042 51.2952C44.8042 49.1116 47.6947 47.4474 49.7189 49.4994C49.8393 49.3057 50.2757 48.5385 50.4678 48.0257C51.0753 48.3452 51.9022 48.6287 52.5946 48.7622C52.8034 48.4347 53.3979 47.057 53.5639 46.4172C54.1384 46.6398 55.3726 46.9886 56.2369 47.1131C56.3553 46.5502 56.384 45.2446 56.3088 44.5269C57.1848 44.724 58.954 44.8157 59.4837 44.7619C59.3805 43.9383 58.9906 42.6744 58.6476 41.9583C59.7163 41.8953 61.3988 41.6726 62.2174 41.4166C61.7825 40.6866 60.5978 39.3329 60.0227 38.8647C61.0107 38.6442 63.1016 37.9699 64.0538 37.3796C63.3149 36.6921 61.5429 35.7394 60.5551 35.364C61.8256 34.7678 63.9452 33.364 64.7572 32.3863C63.5627 32.006 61.2111 31.7391 59.8758 31.707C62.6399 29.8156 62.7251 25.713 61.929 23.4836C61.3938 24.8351 59.6193 27.0554 58.4738 28.2525C58.5754 29.3919 58.2058 31.4129 57.5721 32.6464C58.4794 32.9911 59.5548 33.511 60.3167 34.0907C59.8111 34.727 58.7235 35.7145 58.0412 36.2495C58.6186 36.8534 59.5896 37.9627 60.0222 38.604C59.3829 39.083 57.9916 39.6324 57.2784 39.8847C57.6294 40.6047 58.1391 41.9181 58.271 42.8248C57.4587 42.9592 56.3407 43.0501 55.1717 43.0359C55.2285 43.9041 55.1065 45.2484 54.9553 46.0533C53.8711 45.9671 52.5921 45.5218 52.0218 45.2358C51.7199 46.4356 50.9744 47.5997 50.9418 47.6616C47.5529 43.9665 44.5492 47.4524 44.5492 50.7092V55.1473C44.5492 57.2464 43.8881 58.2048 41.9855 58.2048H39.5233C37.9905 58.2048 36.7061 58.8553 36.0652 60.1051C35.4243 58.8553 34.1399 58.2048 32.6071 58.2048H30.1448C28.2421 58.2048 27.5808 57.2464 27.5808 55.1472V50.7092C27.5808 47.4524 24.5774 43.9665 21.1885 47.6616C21.1559 47.5997 20.4102 46.4356 20.1084 45.2358C19.5381 45.5218 18.259 45.9671 17.1753 46.0533C17.0237 45.2484 16.9018 43.9042 16.9586 43.0361C15.7897 43.0502 14.6717 42.9594 13.8592 42.825C13.9911 41.9183 14.5009 40.6048 14.852 39.8848C14.1389 39.6326 12.7475 39.0831 12.1081 38.6042C12.5406 37.9629 13.5117 36.8535 14.089 36.2495C13.4067 35.7145 12.3191 34.7271 11.8137 34.0907C12.5753 33.511 13.6509 32.991 14.5582 32.6463C13.9245 31.4129 13.5547 29.3919 13.6565 28.2524C12.5109 27.0554 10.7364 24.835 10.2012 23.4836C9.40511 25.713 9.49035 29.8155 12.2545 31.7069L12.2547 31.7071ZM4.62707 52.8968L4.37789 53.1629C4.37789 53.1629 4.89475 53.8386 5.31206 53.5815C5.54963 53.1429 4.8775 52.632 4.8775 52.632L4.62701 52.8968H4.62707Z" fill="#828CA2"/>
</g>
<defs>
<clipPath id="clip0">
<rect width="72.1311" height="80" fill="white"/>
</clipPath>
</defs>
</svg>
